<svg xmlns="http://www.w3.org/2000/svg" viewBox="0 0 96 72" fill="none">
  <path d="M18 40 C16 22, 34 12, 46 18 C54 8, 76 10, 82 24 C94 26, 98 42, 88 50 C80 64, 28 66, 18 54 C8 46, 10 40, 18 40 Z" fill="#F4F1FF" stroke="#3A2A32" stroke-width="2.8" stroke-linejoin="round"/>
  <ellipse cx="36" cy="44" rx="7" ry="4" fill="#E8D7F5"/>
  <ellipse cx="64" cy="44" rx="7" ry="4" fill="#E8D7F5"/>
  <circle cx="40" cy="36" r="4.4" fill="#3A2A32"/>
  <circle cx="58" cy="36" r="4.4" fill="#3A2A32"/>
  <circle cx="41.6" cy="34.6" r="1.5" fill="#FFFFFF"/>
  <circle cx="59.6" cy="34.6" r="1.5" fill="#FFFFFF"/>
  <path d="M44 48 C48 46, 52 46, 56 48" stroke="#3A2A32" stroke-width="2.2" stroke-linecap="round"/>
</svg>
